<svg width="41" height="54" viewBox="0 0 41 54" fill="none" xmlns="http://www.w3.org/2000/svg">
<path d="M3.54134 14.0985C3.87183 13.545 4.30706 12.7958 4.6556 12.2603C5.69943 10.7843 5.83488 10.5908 6.7848 9.4995C7.06652 9.2115 7.40062 8.865 7.72749 8.53875C5.31657 11.0813 5.00956 13.896 7.22183 15.6353C7.21822 15.6353 7.21822 15.6353 7.21822 15.6398C10.3118 17.9618 17.0913 17.46 22.4404 14.4855C27.6216 11.6055 29.5341 7.48575 26.9769 5.03775C24.7322 4.5135 22.0558 4.45275 19.2241 4.92525L18.9297 4.32L19.1735 3.3165C20.8386 3.12975 22.4206 3.17475 23.7858 3.465C24.1163 3.53475 24.5516 3.654 24.8766 3.7395C25.5051 3.93075 25.8464 4.0455 26.2564 4.20975C26.6753 4.365 27.0329 4.52025 27.656 4.80825C28.2664 5.1075 28.53 5.2425 29.0194 5.54625C29.5675 5.8578 30.1 6.21018 30.6141 6.6015C34.6883 9.79425 32.1545 15.6195 24.9651 19.611C17.7956 23.589 8.65936 24.2145 4.56531 21.06C4.5635 21.0555 4.55808 21.051 4.54725 21.0465H4.55447C2.31873 19.2825 2.08395 16.722 3.54134 14.0985ZM22.1948 36.4185L22.137 32.832L20.0909 29.997C13.3313 31.905 6.68728 31.4955 2.99234 28.7843C2.9797 28.7663 2.949 28.7483 2.93635 28.7303C0.845084 27.126 0.328588 25.056 0.485704 22.806C-0.00370396 26.0978 -0.0434345 27.2858 0.0269969 30.1028C0.113682 31.8668 0.931769 33.4935 2.57697 34.776L2.58962 34.794C6.52836 37.845 14.7345 38.5065 22.1948 36.4185ZM30.7279 40.5247C21.1871 45.2925 9.24628 45.5738 4.05964 41.1615C4.61977 42.8669 5.38191 44.4581 6.32067 45.882C11.0811 49.932 22.0413 49.6733 30.7947 45.297C35.9181 42.7388 39.1507 39.3345 39.9995 36.144L40.2379 35.1833C40.8032 32.7488 40.9097 30.7215 41 28.917C40.8971 32.8343 37.1931 37.2892 30.7279 40.5247ZM9.66707 49.707C9.96685 50.0625 10.9095 51.5048 15.6862 53.0978C16.9775 53.4533 20.2282 54.594 26.2329 52.9358L26.269 52.254L25.794 51.327C20.2227 52.9695 14.0338 52.4205 9.66707 49.707ZM23.4536 21.3368L28.5264 26.127C28.5264 26.127 29.6118 27.1012 28.5878 27.7852C27.5675 28.4625 24.9471 30.1208 24.9471 30.1208L22.3592 28.917L21.0607 29.637L23.3506 32.1143L23.3687 35.9685L24.7141 35.2238L25.6062 31.968C25.6062 31.968 28.3458 30.654 29.433 30.159C30.5256 29.6753 30.3793 31.3313 30.3793 31.3313L29.8411 39.231L31.629 38.241L34.5727 27.5828C34.5727 27.5828 36.133 26.6378 37.231 25.8075C38.3272 24.9773 38.7029 23.6003 38.7029 23.6003C38.7029 23.6003 37.6337 23.0265 36.4021 23.4878C35.1704 23.9445 33.565 24.759 33.565 24.759L25.236 20.3513L23.4536 21.3368ZM12.7209 6.18075L16.1648 9.5985L17.1057 9.423L15.2311 6.35625C15.2311 6.35625 14.823 5.72175 15.372 5.571C15.9246 5.418 17.3224 5.0625 17.3224 5.0625L18.3735 6.10875L19.0814 5.97825L18.2796 4.38975L18.7021 2.628L18.0177 2.75175L17.2068 4.09275C17.2068 4.09275 15.7838 4.25925 15.2239 4.31775C14.6605 4.37175 14.9025 3.618 14.9025 3.618L15.9824 0L15.0361 0.17325L12.5439 4.6935C12.5439 4.6935 11.7132 4.8825 11.1118 5.09625C10.5086 5.30775 10.1908 5.88825 10.1908 5.88825C10.1908 5.88825 10.6332 6.33375 11.2563 6.318C11.8848 6.30225 12.7209 6.18075 12.7209 6.18075ZM29.7418 50.0962L27.5133 48.645L27.0004 48.8677L28.3205 50.3392C28.3205 50.3392 28.6023 50.6385 28.3061 50.7983C28.0099 50.9558 27.255 51.3427 27.255 51.3427L26.632 50.9963L26.2618 51.1628L26.7801 51.8513L26.7295 52.857L27.116 52.6905L27.4049 51.8738C27.4049 51.8738 28.1887 51.5835 28.5011 51.48C28.8118 51.3742 28.7413 51.8288 28.7413 51.8288L28.447 54L28.9617 53.7773L29.9712 50.9062C29.9712 50.9062 30.4172 50.688 30.7369 50.4878C31.0565 50.2875 31.183 49.9185 31.183 49.9185C31.183 49.9185 30.8994 49.725 30.5491 49.8218C30.1969 49.914 29.7418 50.0962 29.7418 50.0962Z" fill="white"/>
</svg>
