<svg width="25" height="33" viewBox="0 0 25 33" fill="none" xmlns="http://www.w3.org/2000/svg">
<path d="M12.5 16.8153C13.3594 16.8153 14.0953 16.4857 14.7078 15.8265C15.3193 15.1685 15.625 14.3771 15.625 13.4522C15.625 12.5274 15.3193 11.7354 14.7078 11.0762C14.0953 10.4182 13.3594 10.0892 12.5 10.0892C11.6406 10.0892 10.9052 10.4182 10.2937 11.0762C9.68125 11.7354 9.375 12.5274 9.375 13.4522C9.375 14.3771 9.68125 15.1685 10.2937 15.8265C10.9052 16.4857 11.6406 16.8153 12.5 16.8153ZM12.5 33C12.2917 33 12.0833 32.958 11.875 32.8739C11.6667 32.7898 11.4844 32.6777 11.3281 32.5376C7.52604 28.9223 4.6875 25.5665 2.8125 22.4703C0.9375 19.3729 0 16.479 0 13.7885C0 9.58471 1.25677 6.23567 3.77031 3.7414C6.28281 1.24713 9.19271 0 12.5 0C15.8073 0 18.7172 1.24713 21.2297 3.7414C23.7432 6.23567 25 9.58471 25 13.7885C25 16.479 24.0625 19.3729 22.1875 22.4703C20.3125 25.5665 17.474 28.9223 13.6719 32.5376C13.5156 32.6777 13.3333 32.7898 13.125 32.8739C12.9167 32.958 12.7083 33 12.5 33Z" fill="#6199C1"/>
</svg>
